<?xml version="1.0" encoding="UTF-8" standalone="no"?>
<!DOCTYPE svg PUBLIC "-//W3C//DTD SVG 1.1//EN"
 "http://www.w3.org/Graphics/SVG/1.1/DTD/svg11.dtd">
<!-- Generated by graphviz version 2.28.0 (20110507.0327)
 -->
<!-- Title: G Pages: 1 -->
<svg width="668pt" height="474pt"
 viewBox="0.00 0.00 668.00 474.00" xmlns="http://www.w3.org/2000/svg" xmlns:xlink="http://www.w3.org/1999/xlink">
<g id="graph1" class="graph" transform="scale(1 1) rotate(0) translate(4 470)">
<title>G</title>
<polygon fill="white" stroke="white" points="-4,5 -4,-470 665,-470 665,5 -4,5"/>
<g id="graph2" class="cluster"><title>cluster_global</title>
<polyline fill="none" stroke="gray" points="176,-8 640,-8 "/>
<path fill="none" stroke="gray" d="M640,-8C646,-8 652,-14 652,-20"/>
<polyline fill="none" stroke="gray" points="652,-20 652,-446 "/>
<path fill="none" stroke="gray" d="M652,-446C652,-452 646,-458 640,-458"/>
<polyline fill="none" stroke="gray" points="640,-458 176,-458 "/>
<path fill="none" stroke="gray" d="M176,-458C170,-458 164,-452 164,-446"/>
<polyline fill="none" stroke="gray" points="164,-446 164,-20 "/>
<path fill="none" stroke="gray" d="M164,-20C164,-14 170,-8 176,-8"/>
<text text-anchor="middle" x="408" y="-445.2" font-family="Times New Roman,serif" font-size="11.00" fill="gray">global</text>
</g>
<!-- \\Config -->
<g id="node2" class="node"><title>\\Config</title>
<a xlink:href="Config.class.html" xlink:title="Config" target="_parent">
<polygon fill="none" stroke="black" points="549.5,-430 492.5,-430 492.5,-394 549.5,-394 549.5,-430"/>
<text text-anchor="middle" x="521" y="-409.2" font-family="Courier,monospace" font-size="11.00">Config</text>
</a>
</g>
<!-- \\LAAF_Dispatcher -->
<g id="node3" class="node"><title>\\LAAF_Dispatcher</title>
<a xlink:href="Dispatcher.class.html" xlink:title="LAAF_Dispatcher" target="_parent">
<polygon fill="none" stroke="black" points="580,-376 462,-376 462,-340 580,-340 580,-376"/>
<text text-anchor="middle" x="521" y="-355.2" font-family="Courier,monospace" font-size="11.00">LAAF_Dispatcher</text>
</a>
</g>
<!-- \\LAAF_Exception -->
<g id="node4" class="node"><title>\\LAAF_Exception</title>
<a xlink:href="Exceptions.class.html" xlink:title="LAAF_Exception" target="_parent">
<polygon fill="none" stroke="black" points="304.5,-322 193.5,-322 193.5,-286 304.5,-286 304.5,-322"/>
<text text-anchor="middle" x="249" y="-301.2" font-family="Courier,monospace" font-size="11.00">LAAF_Exception</text>
</a>
</g>
<!-- \\Exception -->
<g id="node14" class="node"><title>\\Exception</title>
<ellipse fill="none" stroke="black" cx="50" cy="-304" rx="50.0912" ry="18"/>
<text text-anchor="middle" x="50" y="-300.3" font-family="Times New Roman,serif" font-size="14.00" fill="gray">\Exception</text>
</g>
<!-- \\LAAF_Exception&#45;&gt;\\Exception -->
<g id="edge3" class="edge"><title>\\LAAF_Exception&#45;&gt;\\Exception</title>
<path fill="none" stroke="black" d="M193.386,-304C167.652,-304 136.893,-304 110.561,-304"/>
<polygon fill="none" stroke="black" points="110.33,-300.5 100.33,-304 110.33,-307.5 110.33,-300.5"/>
</g>
<!-- \\LAAF_Exception_ServiceNotSupported -->
<g id="node5" class="node"><title>\\LAAF_Exception_ServiceNotSupported</title>
<a xlink:href="Exceptions.class.html" xlink:title="LAAF_Exception_ServiceNotSupported" target="_parent">
<polygon fill="none" stroke="black" points="644,-322 398,-322 398,-286 644,-286 644,-322"/>
<text text-anchor="middle" x="521" y="-301.2" font-family="Courier,monospace" font-size="11.00">LAAF_Exception_ServiceNotSupported</text>
</a>
</g>
<!-- \\LAAF_Exception_ServiceNotSupported&#45;&gt;\\LAAF_Exception -->
<g id="edge5" class="edge"><title>\\LAAF_Exception_ServiceNotSupported&#45;&gt;\\LAAF_Exception</title>
<path fill="none" stroke="black" d="M397.64,-304C369.066,-304 339.731,-304 314.815,-304"/>
<polygon fill="none" stroke="black" points="314.781,-300.5 304.781,-304 314.781,-307.5 314.781,-300.5"/>
</g>
<!-- \\LAAF_Frame -->
<g id="node6" class="node"><title>\\LAAF_Frame</title>
<a xlink:href="Frame.class.html" xlink:title="LAAF_Frame" target="_parent">
<polygon fill="none" stroke="black" points="563,-268 479,-268 479,-232 563,-232 563,-268"/>
<text text-anchor="middle" x="521" y="-247.2" font-family="Courier,monospace" font-size="11.00">LAAF_Frame</text>
</a>
</g>
<!-- \\LAAF_Reader_Abstract -->
<g id="node7" class="node"><title>\\LAAF_Reader_Abstract</title>
<a xlink:href="Reader.Abstract.class.html" xlink:title="«abstract»&lt;br/&gt;LAAF_Reader_Abstract" target="_parent">
<polygon fill="none" stroke="black" points="325.5,-187 172.5,-187 172.5,-151 325.5,-151 325.5,-187"/>
<text text-anchor="start" x="215" y="-172.7" font-family="Courier,monospace" font-size="11.00">«abstract»</text>
<text text-anchor="start" x="181" y="-161.7" font-family="Courier,monospace" font-size="11.00">LAAF_Reader_Abstract</text>
</a>
</g>
<!-- \\LAAF_Reader_Json -->
<g id="node8" class="node"><title>\\LAAF_Reader_Json</title>
<a xlink:href="Reader.Json.class.html" xlink:title="LAAF_Reader_Json" target="_parent">
<polygon fill="none" stroke="black" points="583.5,-214 458.5,-214 458.5,-178 583.5,-178 583.5,-214"/>
<text text-anchor="middle" x="521" y="-193.2" font-family="Courier,monospace" font-size="11.00">LAAF_Reader_Json</text>
</a>
</g>
<!-- \\LAAF_Reader_Json&#45;&gt;\\LAAF_Reader_Abstract -->
<g id="edge7" class="edge"><title>\\LAAF_Reader_Json&#45;&gt;\\LAAF_Reader_Abstract</title>
<path fill="none" stroke="black" d="M458.395,-189.839C422.094,-186.209 375.622,-181.562 335.777,-177.578"/>
<polygon fill="none" stroke="black" points="336.099,-174.092 325.8,-176.58 335.402,-181.058 336.099,-174.092"/>
</g>
<!-- \\LAAF_Reader_Xml -->
<g id="node9" class="node"><title>\\LAAF_Reader_Xml</title>
<a xlink:href="Reader.Xml.class.html" xlink:title="LAAF_Reader_Xml" target="_parent">
<polygon fill="none" stroke="black" points="580,-160 462,-160 462,-124 580,-124 580,-160"/>
<text text-anchor="middle" x="521" y="-139.2" font-family="Courier,monospace" font-size="11.00">LAAF_Reader_Xml</text>
</a>
</g>
<!-- \\LAAF_Reader_Xml&#45;&gt;\\LAAF_Reader_Abstract -->
<g id="edge9" class="edge"><title>\\LAAF_Reader_Xml&#45;&gt;\\LAAF_Reader_Abstract</title>
<path fill="none" stroke="black" d="M461.746,-147.825C424.94,-151.506 376.736,-156.326 335.62,-160.438"/>
<polygon fill="none" stroke="black" points="335.207,-156.962 325.605,-161.44 335.904,-163.927 335.207,-156.962"/>
</g>
<!-- \\LAAF_Writer_Abstract -->
<g id="node10" class="node"><title>\\LAAF_Writer_Abstract</title>
<a xlink:href="Writer.Abstract.class.html" xlink:title="«abstract»&lt;br/&gt;LAAF_Writer_Abstract" target="_parent">
<polygon fill="none" stroke="black" points="325.5,-79 172.5,-79 172.5,-43 325.5,-43 325.5,-79"/>
<text text-anchor="start" x="215" y="-64.7" font-family="Courier,monospace" font-size="11.00">«abstract»</text>
<text text-anchor="start" x="181" y="-53.7" font-family="Courier,monospace" font-size="11.00">LAAF_Writer_Abstract</text>
</a>
</g>
<!-- \\LAAF_Writer_Json -->
<g id="node11" class="node"><title>\\LAAF_Writer_Json</title>
<a xlink:href="Writer.Json.class.html" xlink:title="LAAF_Writer_Json" target="_parent">
<polygon fill="none" stroke="black" points="583.5,-106 458.5,-106 458.5,-70 583.5,-70 583.5,-106"/>
<text text-anchor="middle" x="521" y="-85.2" font-family="Courier,monospace" font-size="11.00">LAAF_Writer_Json</text>
</a>
</g>
<!-- \\LAAF_Writer_Json&#45;&gt;\\LAAF_Writer_Abstract -->
<g id="edge11" class="edge"><title>\\LAAF_Writer_Json&#45;&gt;\\LAAF_Writer_Abstract</title>
<path fill="none" stroke="black" d="M458.395,-81.8395C422.094,-78.2094 375.622,-73.5622 335.777,-69.5777"/>
<polygon fill="none" stroke="black" points="336.099,-66.0925 325.8,-68.58 335.402,-73.0578 336.099,-66.0925"/>
</g>
<!-- \\LAAF_Writer_Xml -->
<g id="node12" class="node"><title>\\LAAF_Writer_Xml</title>
<a xlink:href="Writer.Xml.class.html" xlink:title="LAAF_Writer_Xml" target="_parent">
<polygon fill="none" stroke="black" points="580,-52 462,-52 462,-16 580,-16 580,-52"/>
<text text-anchor="middle" x="521" y="-31.2" font-family="Courier,monospace" font-size="11.00">LAAF_Writer_Xml</text>
</a>
</g>
<!-- \\LAAF_Writer_Xml&#45;&gt;\\LAAF_Writer_Abstract -->
<g id="edge13" class="edge"><title>\\LAAF_Writer_Xml&#45;&gt;\\LAAF_Writer_Abstract</title>
<path fill="none" stroke="black" d="M461.746,-39.8254C424.94,-43.506 376.736,-48.3264 335.62,-52.438"/>
<polygon fill="none" stroke="black" points="335.207,-48.9618 325.605,-53.4395 335.904,-55.927 335.207,-48.9618"/>
</g>
</g>
</svg>
