<?xml version="1.0" encoding="UTF-8" standalone="no"?>
<!DOCTYPE svg PUBLIC "-//W3C//DTD SVG 1.1//EN"
 "http://www.w3.org/Graphics/SVG/1.1/DTD/svg11.dtd">
<!-- Generated by graphviz version 2.28.0 (20110507.0327)
 -->
<!-- Title: G Pages: 1 -->
<svg width="392pt" height="366pt"
 viewBox="0.00 0.00 392.00 366.00" xmlns="http://www.w3.org/2000/svg" xmlns:xlink="http://www.w3.org/1999/xlink">
<g id="graph1" class="graph" transform="scale(1 1) rotate(0) translate(4 362)">
<title>G</title>
<polygon fill="white" stroke="white" points="-4,5 -4,-362 389,-362 389,5 -4,5"/>
<g id="graph2" class="cluster"><title>cluster_global</title>
<polyline fill="none" stroke="gray" points="20,-8 364,-8 "/>
<path fill="none" stroke="gray" d="M364,-8C370,-8 376,-14 376,-20"/>
<polyline fill="none" stroke="gray" points="376,-20 376,-338 "/>
<path fill="none" stroke="gray" d="M376,-338C376,-344 370,-350 364,-350"/>
<polyline fill="none" stroke="gray" points="364,-350 20,-350 "/>
<path fill="none" stroke="gray" d="M20,-350C14,-350 8,-344 8,-338"/>
<polyline fill="none" stroke="gray" points="8,-338 8,-20 "/>
<path fill="none" stroke="gray" d="M8,-20C8,-14 14,-8 20,-8"/>
<text text-anchor="middle" x="192" y="-337.2" font-family="Times New Roman,serif" font-size="11.00" fill="gray">global</text>
</g>
<!-- \\Config -->
<g id="node2" class="node"><title>\\Config</title>
<a xlink:href="Config.class.html" xlink:title="Config" target="_parent">
<polygon fill="none" stroke="black" points="333.5,-322 276.5,-322 276.5,-286 333.5,-286 333.5,-322"/>
<text text-anchor="middle" x="305" y="-301.2" font-family="Courier,monospace" font-size="11.00">Config</text>
</a>
</g>
<!-- \\LAAF_Frame -->
<g id="node3" class="node"><title>\\LAAF_Frame</title>
<a xlink:href="Frame.class.html" xlink:title="LAAF_Frame" target="_parent">
<polygon fill="none" stroke="black" points="347,-268 263,-268 263,-232 347,-232 347,-268"/>
<text text-anchor="middle" x="305" y="-247.2" font-family="Courier,monospace" font-size="11.00">LAAF_Frame</text>
</a>
</g>
<!-- \\LAAF_Reader_Abstract -->
<g id="node4" class="node"><title>\\LAAF_Reader_Abstract</title>
<a xlink:href="Reader.Abstract.class.html" xlink:title="«abstract»&lt;br/&gt;LAAF_Reader_Abstract" target="_parent">
<polygon fill="none" stroke="black" points="169.5,-187 16.5,-187 16.5,-151 169.5,-151 169.5,-187"/>
<text text-anchor="start" x="59" y="-172.7" font-family="Courier,monospace" font-size="11.00">«abstract»</text>
<text text-anchor="start" x="25" y="-161.7" font-family="Courier,monospace" font-size="11.00">LAAF_Reader_Abstract</text>
</a>
</g>
<!-- \\LAAF_Reader_Json -->
<g id="node5" class="node"><title>\\LAAF_Reader_Json</title>
<a xlink:href="Reader.Json.class.html" xlink:title="LAAF_Reader_Json" target="_parent">
<polygon fill="none" stroke="black" points="367.5,-214 242.5,-214 242.5,-178 367.5,-178 367.5,-214"/>
<text text-anchor="middle" x="305" y="-193.2" font-family="Courier,monospace" font-size="11.00">LAAF_Reader_Json</text>
</a>
</g>
<!-- \\LAAF_Reader_Json&#45;&gt;\\LAAF_Reader_Abstract -->
<g id="edge3" class="edge"><title>\\LAAF_Reader_Json&#45;&gt;\\LAAF_Reader_Abstract</title>
<path fill="none" stroke="black" d="M242.412,-188.082C222.859,-185.568 200.868,-182.74 179.925,-180.047"/>
<polygon fill="none" stroke="black" points="180.108,-176.542 169.743,-178.738 179.215,-183.485 180.108,-176.542"/>
</g>
<!-- \\LAAF_Reader_Xml -->
<g id="node6" class="node"><title>\\LAAF_Reader_Xml</title>
<a xlink:href="Reader.Xml.class.html" xlink:title="LAAF_Reader_Xml" target="_parent">
<polygon fill="none" stroke="black" points="364,-160 246,-160 246,-124 364,-124 364,-160"/>
<text text-anchor="middle" x="305" y="-139.2" font-family="Courier,monospace" font-size="11.00">LAAF_Reader_Xml</text>
</a>
</g>
<!-- \\LAAF_Reader_Xml&#45;&gt;\\LAAF_Reader_Abstract -->
<g id="edge5" class="edge"><title>\\LAAF_Reader_Xml&#45;&gt;\\LAAF_Reader_Abstract</title>
<path fill="none" stroke="black" d="M245.782,-149.485C225.361,-152.111 201.973,-155.118 179.772,-157.972"/>
<polygon fill="none" stroke="black" points="179.142,-154.524 169.67,-159.271 180.035,-161.467 179.142,-154.524"/>
</g>
<!-- \\LAAF_Writer_Abstract -->
<g id="node7" class="node"><title>\\LAAF_Writer_Abstract</title>
<a xlink:href="Writer.Abstract.class.html" xlink:title="«abstract»&lt;br/&gt;LAAF_Writer_Abstract" target="_parent">
<polygon fill="none" stroke="black" points="169.5,-79 16.5,-79 16.5,-43 169.5,-43 169.5,-79"/>
<text text-anchor="start" x="59" y="-64.7" font-family="Courier,monospace" font-size="11.00">«abstract»</text>
<text text-anchor="start" x="25" y="-53.7" font-family="Courier,monospace" font-size="11.00">LAAF_Writer_Abstract</text>
</a>
</g>
<!-- \\LAAF_Writer_Json -->
<g id="node8" class="node"><title>\\LAAF_Writer_Json</title>
<a xlink:href="Writer.Json.class.html" xlink:title="LAAF_Writer_Json" target="_parent">
<polygon fill="none" stroke="black" points="367.5,-106 242.5,-106 242.5,-70 367.5,-70 367.5,-106"/>
<text text-anchor="middle" x="305" y="-85.2" font-family="Courier,monospace" font-size="11.00">LAAF_Writer_Json</text>
</a>
</g>
<!-- \\LAAF_Writer_Json&#45;&gt;\\LAAF_Writer_Abstract -->
<g id="edge7" class="edge"><title>\\LAAF_Writer_Json&#45;&gt;\\LAAF_Writer_Abstract</title>
<path fill="none" stroke="black" d="M242.412,-80.0815C222.859,-77.5676 200.868,-74.7402 179.925,-72.0475"/>
<polygon fill="none" stroke="black" points="180.108,-68.5423 169.743,-70.7384 179.215,-75.4851 180.108,-68.5423"/>
</g>
<!-- \\LAAF_Writer_Xml -->
<g id="node9" class="node"><title>\\LAAF_Writer_Xml</title>
<a xlink:href="Writer.Xml.class.html" xlink:title="LAAF_Writer_Xml" target="_parent">
<polygon fill="none" stroke="black" points="364,-52 246,-52 246,-16 364,-16 364,-52"/>
<text text-anchor="middle" x="305" y="-31.2" font-family="Courier,monospace" font-size="11.00">LAAF_Writer_Xml</text>
</a>
</g>
<!-- \\LAAF_Writer_Xml&#45;&gt;\\LAAF_Writer_Abstract -->
<g id="edge9" class="edge"><title>\\LAAF_Writer_Xml&#45;&gt;\\LAAF_Writer_Abstract</title>
<path fill="none" stroke="black" d="M245.782,-41.4851C225.361,-44.1107 201.973,-47.1178 179.772,-49.9722"/>
<polygon fill="none" stroke="black" points="179.142,-46.5243 169.67,-51.271 180.035,-53.4671 179.142,-46.5243"/>
</g>
</g>
</svg>
